<svg xmlns="http://www.w3.org/2000/svg" width="124" height="34" viewBox="0 0 124 34">
    <g fill="none" fill-rule="nonzero">
        <path fill="#1C2735" d="M119.448 12.453h3.762v14.811h-3.762zM121.338 6.372c.66 0 1.225.239 1.697.707a2.31 2.31 0 0 1 .712 1.706c0 .66-.236 1.223-.702 1.688a2.299 2.299 0 0 1-1.683.697c-.67 0-1.239-.238-1.711-.71a2.354 2.354 0 0 1-.712-1.73c0-.65.236-1.204.702-1.664a2.328 2.328 0 0 1 1.697-.694M112.288 12.453h3.762v14.812h-3.762v-1.576c-.735.688-1.475 1.18-2.215 1.483a6.328 6.328 0 0 1-2.409.455c-1.946 0-3.623-.74-5.043-2.222-1.417-1.48-2.126-3.32-2.126-5.518 0-2.283.687-4.153 2.06-5.612 1.37-1.455 3.036-2.184 4.996-2.184.905 0 1.75.167 2.54.497.793.33 1.523.832 2.198 1.492v-1.627zm-3.964 3.04c-1.169 0-2.138.407-2.908 1.219-.77.81-1.16 1.85-1.16 3.119 0 1.278.39 2.33 1.178 3.157.786.823 1.754 1.236 2.904 1.236 1.183 0 2.166-.407 2.946-1.218.78-.811 1.173-1.874 1.173-3.19 0-1.287-.39-2.328-1.173-3.128-.777-.794-1.768-1.194-2.96-1.194zM95.788 23.36c.6 0 1.108.204 1.532.618.42.413.632.916.632 1.506 0 .596-.212 1.097-.632 1.516a2.1 2.1 0 0 1-1.532.628A2.1 2.1 0 0 1 94.257 27a2.059 2.059 0 0 1-.632-1.516c0-.59.212-1.093.632-1.506a2.112 2.112 0 0 1 1.531-.618M85.71 6.986h3.762v5.467h2.235v3.208h-2.235v11.604h-3.761V15.66h-1.923v-3.208h1.923zM81.647 14.55l-2.328 2.31c-.943-.93-1.801-1.394-2.574-1.394-.42 0-.75.088-.99.265-.24.176-.358.395-.358.655 0 .2.076.382.226.549.15.167.529.393 1.127.688l1.376.679c1.446.713 2.453 1.422 2.993 2.152.543.733.81 1.59.81 2.575 0 1.311-.49 2.407-1.47 3.282-.98.877-2.296 1.316-3.945 1.316-2.187 0-3.94-.84-5.246-2.529l2.323-2.491c.443.506.963.92 1.56 1.231.594.31 1.122.47 1.584.47.495 0 .9-.118 1.202-.353.305-.238.457-.507.457-.814 0-.572-.549-1.127-1.645-1.669l-1.268-.628c-2.431-1.203-3.648-2.71-3.648-4.518 0-1.167.457-2.167 1.371-2.994.915-.827 2.084-1.241 3.507-1.241.976 0 1.892.213 2.753.636a6.077 6.077 0 0 1 2.183 1.823M69.723 20.905h-12.09c.174 1.055.64 1.898 1.395 2.524.753.624 1.72.935 2.89.935 1.404 0 2.606-.488 3.615-1.464l3.158 1.473c-.788 1.107-1.733 1.929-2.833 2.46-1.1.532-2.409.795-3.922.795-2.347 0-4.26-.732-5.736-2.195-1.474-1.46-2.215-3.291-2.215-5.49 0-2.255.741-4.127 2.215-5.616 1.476-1.49 3.323-2.236 5.552-2.236 2.362 0 4.286.743 5.765 2.227 1.481 1.486 2.27 3.446 2.22 5.885l-.014.702zm-3.747-2.9c-.25-.81-.74-1.471-1.47-1.977-.735-.507-1.584-.757-2.555-.757-1.052 0-1.97.285-2.767.855-.494.354-.957.98-1.381 1.878h8.173zM46.665 6.986h3.761v5.467h2.234v3.208h-2.234v11.604h-3.761V15.66h-1.923v-3.208h1.923z"/>
        <path fill="#3562BD" d="M5.36 29.128l.03.034 22.866-9.766L20.273 5.76a2.972 2.972 0 0 1-1.237 0L12.198 17.44v.004L5.36 29.128zm31.666-.813a2.897 2.897 0 0 1 2.03 2.753c0 1.597-1.312 2.891-2.931 2.891-1.62 0-2.932-1.294-2.932-2.891 0-.747.287-1.429.759-1.942L29.16 20.94 6.104 30.786c.009.093.013.187.013.282 0 1.597-1.312 2.891-2.932 2.891-1.619 0-2.931-1.294-2.931-2.891 0-1.598 1.312-2.892 2.931-2.892.212 0 .418.023.617.065l6.84-11.685h.002l6.838-11.682a2.86 2.86 0 0 1-.759-1.941c0-1.597 1.313-2.892 2.932-2.892 1.62 0 2.932 1.295 2.932 2.892a2.86 2.86 0 0 1-.759 1.941l8.086 13.814 3.293-1.406a2.829 2.829 0 0 1-.014-.281c0-1.597 1.313-2.892 2.932-2.892 1.62 0 2.932 1.295 2.932 2.892a2.898 2.898 0 0 1-2.03 2.752v8.562zm-3.106-9.409l-3.102 1.325 4.405 7.526v-8.005a2.94 2.94 0 0 1-1.303-.846z"/>
    </g>
</svg>
